<?xml version="1.0" standalone="no"?>
<!DOCTYPE svg PUBLIC "-//W3C//DTD SVG 20010904//EN"
 "http://www.w3.org/TR/2001/REC-SVG-20010904/DTD/svg10.dtd">
<svg version="1.0" xmlns="http://www.w3.org/2000/svg"
 width="1536.000000pt" height="1024.000000pt" viewBox="0 0 1536.000000 1024.000000"
 preserveAspectRatio="xMidYMid meet">

<g transform="translate(0.000000,1024.000000) scale(0.100000,-0.100000)"
fill="#000000" stroke="none">
<path d="M4145 6784 c-381 -38 -651 -105 -1030 -254 -66 -26 -164 -69 -219
-95 l-98 -48 5 -406 c5 -453 13 -533 73 -772 146 -582 419 -962 954 -1330 87
-60 178 -113 344 -199 l139 -73 61 33 c348 189 579 352 776 550 330 329 517
708 601 1215 18 113 22 183 26 540 5 391 4 411 -13 426 -25 21 -258 125 -419
187 -282 108 -505 171 -720 203 -125 18 -396 31 -480 23z m250 -353 c77 -36
135 -124 135 -205 0 -127 -106 -226 -241 -226 -136 0 -229 89 -229 220 0 100
43 173 125 211 54 25 156 25 210 0z m-717 -197 c54 -22 91 -62 107 -117 45
-153 -96 -274 -267 -227 -46 13 -103 76 -118 130 -17 63 8 138 61 184 23 19
51 37 63 39 49 10 119 6 154 -9z m1426 -17 c95 -73 103 -223 15 -290 -92 -70
-251 -55 -306 30 -42 63 -30 178 23 234 44 46 80 59 160 56 60 -2 76 -6 108
-30z m-624 -327 c52 -6 119 -17 147 -25 76 -22 87 -43 93 -184 l5 -116 30 0
30 0 3 105 c2 84 6 107 19 118 21 15 216 16 318 2 97 -14 188 -46 216 -76 23
-25 24 -32 27 -202 4 -199 0 -229 -29 -261 -20 -21 -22 -21 -40 -5 -10 9 -19
23 -19 30 0 23 -62 85 -109 108 -211 106 -527 166 -870 166 -290 0 -515 -32
-736 -105 -177 -59 -232 -95 -265 -174 -15 -38 -35 -37 -64 2 -20 27 -21 41
-21 210 1 112 5 192 12 208 24 55 173 96 379 106 67 3 133 3 148 -1 l26 -6 0
-116 0 -115 33 3 32 3 5 126 c6 140 13 159 74 179 83 27 382 38 556 20z m127
-475 c246 -33 454 -93 523 -152 34 -29 40 -40 40 -74 0 -29 -7 -47 -29 -71
l-30 -33 -48 18 c-240 89 -392 122 -632 137 -317 20 -591 -17 -839 -111 -120
-46 -138 -44 -166 15 -22 46 -9 93 34 130 32 26 199 84 320 111 202 45 600 59
827 30z m-115 -285 c205 -20 435 -80 477 -124 32 -34 30 -74 -3 -103 -34 -29
-54 -29 -107 1 -24 14 -46 23 -51 20 -4 -3 -8 -163 -8 -355 l0 -350 -32 -30
c-42 -39 -113 -89 -127 -89 -8 0 -11 133 -11 435 l0 435 -40 2 c-22 0 -45 1
-52 2 -9 1 -12 -95 -10 -418 2 -230 0 -441 -3 -470 l-7 -52 -81 -46 -82 -47
-3 520 -2 519 -65 0 -65 0 0 -515 c0 -283 -3 -515 -7 -515 -3 0 -42 21 -85 46
l-78 46 0 470 0 470 -22 -6 c-13 -3 -35 -6 -50 -6 l-28 0 -2 -440 -3 -440 -77
61 -78 60 0 360 c0 240 -3 359 -10 359 -6 0 -34 -12 -62 -26 l-51 -26 -24 24
c-30 30 -33 80 -7 109 44 49 220 95 469 123 70 7 288 5 387 -4z"/>
<path d="M9828 6314 c-223 -54 -345 -239 -310 -473 32 -226 192 -351 447 -351
154 0 270 44 353 134 51 56 68 89 88 173 20 86 13 197 -18 277 -30 81 -111
167 -192 205 -103 50 -252 64 -368 35z m224 -151 c104 -41 149 -111 156 -239
6 -109 -14 -168 -73 -223 -52 -48 -108 -65 -190 -58 -143 11 -224 104 -225
258 0 127 45 213 134 255 61 29 137 31 198 7z"/>
<path d="M6246 6258 c-3 -29 -6 -65 -6 -80 l0 -28 135 0 135 0 0 -325 0 -325
100 0 100 0 0 325 0 325 130 0 130 0 0 80 0 80 -359 0 -358 0 -7 -52z"/>
<path d="M7060 5906 l0 -406 100 0 100 0 0 100 0 100 123 0 c191 0 297 31 369
107 77 81 96 232 42 339 -34 69 -89 115 -167 140 -41 14 -105 18 -309 22
l-258 4 0 -406z m453 243 c21 -5 52 -23 70 -39 30 -26 32 -33 32 -93 0 -122
-54 -160 -237 -165 l-118 -4 0 156 0 156 108 0 c59 0 124 -5 145 -11z"/>
<path d="M7793 6303 c3 -5 42 -69 87 -143 46 -74 116 -191 158 -260 41 -69 83
-138 94 -153 26 -37 12 -72 -37 -93 -33 -13 -83 -10 -136 11 -12 4 -17 -10
-26 -62 -8 -44 -9 -71 -2 -79 26 -32 202 -46 262 -20 72 30 104 79 259 396 83
168 160 325 171 350 12 25 23 48 25 53 2 4 -44 7 -102 7 l-106 0 -50 -107
c-28 -60 -70 -150 -93 -200 -22 -51 -43 -93 -46 -93 -3 0 -20 26 -37 58 -16
31 -66 121 -110 199 l-79 143 -118 0 c-65 0 -116 -3 -114 -7z"/>
<path d="M8770 6246 c0 -186 -40 -409 -94 -517 -29 -60 -33 -64 -68 -67 l-38
-3 0 -160 0 -159 95 0 95 0 0 80 0 80 275 0 275 0 0 -80 0 -80 90 0 90 0 0
160 0 160 -60 0 -60 0 0 325 0 325 -300 0 -300 0 0 -64z m410 -336 l0 -249
-165 -3 c-183 -3 -174 -7 -140 62 31 62 57 193 71 358 l7 82 113 0 114 0 0
-250z"/>
<path d="M10520 5904 l0 -405 268 3 c298 5 325 10 401 75 59 50 75 85 75 168
1 89 -24 135 -94 170 -26 13 -50 21 -54 18 -3 -4 -6 -2 -6 3 0 5 17 18 37 29
20 11 49 40 65 64 50 79 33 170 -42 223 -68 49 -128 58 -402 58 l-248 0 0
-406z m345 266 c104 0 116 -2 140 -23 35 -29 37 -89 6 -121 -19 -19 -35 -21
-147 -24 -69 -2 -131 -2 -137 1 -8 3 -11 31 -9 91 3 73 6 87 19 82 8 -3 66 -6
128 -6z m119 -311 c58 -16 86 -49 86 -102 0 -34 -6 -50 -26 -70 -32 -32 -54
-36 -209 -39 -91 -2 -120 0 -119 10 1 6 2 57 3 112 l1 100 113 0 c61 0 129 -5
151 -11z"/>
<path d="M11573 6257 c-63 -147 -266 -612 -296 -679 l-36 -78 108 0 107 0 33
80 33 80 195 -2 196 -3 32 -75 32 -75 113 -3 c108 -3 113 -2 98 15 -8 10 -30
50 -48 88 -79 168 -310 687 -310 696 0 5 -52 9 -117 9 l-118 0 -22 -53z m220
-324 l54 -133 -133 0 c-74 0 -134 2 -134 5 0 7 110 275 123 300 12 23 5 36 90
-172z"/>
<path d="M12433 6295 c-151 -33 -232 -127 -232 -270 0 -106 44 -185 128 -233
l48 -26 -79 -118 c-43 -65 -81 -125 -84 -133 -5 -13 11 -15 105 -15 104 0 111
1 124 23 8 12 39 64 68 114 l54 93 93 0 92 0 0 -115 0 -115 95 0 95 0 0 405 0
405 -222 -1 c-147 0 -244 -5 -285 -14z m317 -281 l0 -146 -119 3 c-132 4 -153
13 -199 80 -19 27 -23 43 -19 82 8 93 70 126 230 127 l107 0 0 -146z"/>
<path d="M6551 5184 c-169 -45 -275 -171 -288 -339 -10 -134 22 -237 100 -322
82 -89 180 -126 342 -127 258 -1 422 128 449 355 26 208 -94 380 -301 434 -72
19 -230 18 -302 -1z m232 -135 c47 -13 111 -69 140 -123 32 -59 31 -203 0
-262 -47 -87 -155 -144 -246 -129 -135 23 -207 115 -207 263 0 87 16 134 62
187 58 66 155 91 251 64z"/>
<path d="M8338 5181 c-119 -38 -198 -106 -246 -210 -20 -43 -27 -76 -30 -147
-11 -239 117 -392 355 -425 92 -13 214 0 299 32 81 30 172 121 204 204 33 84
34 234 1 317 -41 106 -137 190 -262 229 -82 25 -241 25 -321 0z m277 -149 c71
-36 105 -87 125 -188 10 -51 9 -71 -4 -125 -31 -119 -108 -180 -230 -180 -144
0 -226 80 -242 235 -13 127 53 246 152 274 56 16 153 8 199 -16z"/>
<path d="M7250 4790 l0 -390 100 0 100 0 0 315 0 315 165 0 165 0 0 -315 0
-315 95 0 95 0 0 390 0 390 -360 0 -360 0 0 -390z"/>
<path d="M9040 4791 l0 -391 95 0 95 0 0 95 0 95 84 0 c198 0 313 35 384 115
47 53 63 105 63 197 0 127 -57 206 -179 251 -51 18 -85 21 -299 25 l-243 4 0
-391z m450 226 c49 -24 70 -63 70 -131 0 -47 -4 -60 -30 -89 -38 -44 -86 -57
-204 -57 l-96 0 0 151 0 152 113 -5 c77 -3 123 -10 147 -21z"/>
<path d="M9935 4998 c-43 -101 -115 -271 -162 -378 -47 -107 -87 -201 -90
-207 -4 -10 20 -13 98 -13 l104 0 28 75 28 75 191 -2 192 -3 29 -72 29 -73
104 0 c57 0 104 3 104 8 -1 4 -79 178 -174 387 l-173 380 -115 3 -116 3 -77
-183z m259 -149 c32 -82 57 -152 54 -155 -3 -2 -59 -3 -126 -2 l-120 3 61 153
c33 83 63 152 66 152 3 -1 32 -68 65 -151z"/>
<path d="M6250 4110 l0 -30 2175 0 2175 0 0 30 0 30 -2175 0 -2175 0 0 -30z"/>
</g>
</svg>
