<?xml version="1.0" standalone="no"?>
<!DOCTYPE svg PUBLIC "-//W3C//DTD SVG 20010904//EN"
 "http://www.w3.org/TR/2001/REC-SVG-20010904/DTD/svg10.dtd">
<svg version="1.0" xmlns="http://www.w3.org/2000/svg"
 width="4068.000000pt" height="1901.000000pt" viewBox="0 0 4068.000000 1901.000000"
 preserveAspectRatio="xMidYMid meet">

<g transform="translate(0.000000,1901.000000) scale(0.100000,-0.100000)"
fill="#000000" stroke="none">
<path d="M7525 18859 c-20 -85 -67 -292 -106 -462 -38 -169 -78 -325 -89 -346
-11 -22 -33 -49 -49 -60 -43 -31 -505 -202 -1086 -402 l-200 -69 -30 35 c-29
36 -465 625 -533 722 -20 29 -41 52 -46 53 -5 0 -136 -45 -290 -99 -429 -152
-1348 -478 -1378 -490 l-26 -10 4 -113 c10 -280 26 -919 23 -922 -6 -5 -974
-337 -1136 -390 -78 -25 -149 -46 -157 -46 -22 0 -152 58 -426 192 -299 146
-468 224 -539 249 l-55 19 -47 -49 c-60 -62 -253 -304 -408 -510 -174 -232
-620 -847 -627 -864 -19 -50 103 -193 538 -632 l188 -190 -2 -580 -3 -579 -75
-18 c-41 -10 -241 -63 -445 -118 -203 -54 -401 -107 -440 -117 l-70 -18 2
-750 c1 -413 5 -808 9 -880 l6 -130 518 -174 518 -175 6 -345 c4 -190 8 -480
9 -644 l2 -297 -250 -111 c-386 -171 -442 -197 -563 -262 -62 -33 -129 -75
-149 -92 l-36 -31 27 -189 c86 -599 216 -1391 242 -1473 32 -97 23 -94 324
-125 146 -16 379 -39 519 -52 140 -14 258 -28 262 -32 3 -5 33 -87 64 -183 63
-189 161 -441 304 -780 50 -118 91 -220 91 -228 0 -14 -386 -444 -572 -638
-65 -66 -122 -132 -127 -145 -12 -31 19 -87 224 -419 380 -614 726 -1147 751
-1157 24 -9 155 31 624 189 l415 139 304 -308 c461 -467 621 -642 621 -677 0
-41 -65 -249 -155 -501 -86 -237 -145 -426 -145 -461 0 -28 29 -51 375 -291
143 -99 357 -249 475 -333 350 -248 647 -440 683 -440 26 0 178 120 437 345
133 116 256 219 275 230 30 18 38 18 82 7 116 -29 1089 -542 1110 -584 16 -32
56 -204 152 -653 l78 -360 144 -6 c79 -4 516 -10 970 -14 l826 -8 7 26 c12 48
164 751 192 887 15 74 31 140 36 147 10 12 575 315 930 498 124 63 213 103
220 99 32 -18 157 -121 313 -258 188 -164 358 -296 422 -327 41 -20 42 -20 80
-1 65 34 587 384 1053 707 245 170 447 310 449 311 2 2 -33 106 -79 231 -80
220 -230 660 -243 715 -8 31 14 61 169 233 131 146 744 776 760 782 7 3 235
-70 506 -161 271 -90 504 -166 517 -168 22 -3 46 30 233 322 354 552 677 1067
744 1186 l28 52 -27 38 c-15 22 -82 95 -149 164 -406 415 -547 578 -535 617 2
10 63 165 136 346 164 412 231 596 241 671 19 130 105 164 541 211 465 50 559
68 603 114 19 20 31 51 46 126 51 247 194 1079 245 1424 24 157 24 166 7 184
-24 27 -386 202 -711 343 l-273 119 7 540 c4 297 10 589 14 649 l6 108 508
166 507 166 0 886 0 887 -172 46 c-174 46 -761 200 -830 218 l-38 10 0 561 0
562 273 275 c364 368 482 504 470 539 -23 67 -874 1280 -1007 1437 l-34 40
-74 -25 c-40 -13 -233 -104 -428 -202 -453 -226 -513 -251 -564 -244 -53 9
-428 136 -890 301 l-388 140 6 320 c3 176 9 408 12 516 l7 195 -634 224 c-648
228 -1034 360 -1055 360 -15 0 -140 -154 -289 -355 -150 -204 -296 -378 -340
-405 l-34 -21 -135 45 c-316 106 -955 345 -1066 399 l-65 32 -33 97 c-35 106
-91 320 -172 659 l-51 216 -457 7 c-251 3 -674 9 -938 12 l-482 7 -37 -154z
m1194 -1589 c232 -73 613 -205 1386 -482 369 -132 1158 -413 1755 -625 597
-211 1517 -538 2045 -725 528 -187 973 -345 988 -351 l29 -10 -5 -2371 c-5
-2258 -9 -2606 -37 -3166 -39 -770 -112 -1275 -260 -1793 -269 -946 -690
-1795 -1285 -2592 -428 -573 -997 -1159 -1598 -1643 -766 -618 -1645 -1152
-2647 -1609 -214 -98 -579 -253 -593 -253 -26 0 -670 294 -967 441 -353 175
-496 250 -782 416 -2038 1173 -3440 2716 -4133 4553 -81 213 -137 387 -224
692 -199 693 -235 954 -261 1873 -10 355 -27 2678 -32 4474 l-3 983 65 23 c36
13 522 186 1080 385 1054 376 1456 519 1965 697 165 58 707 251 1205 430 998
358 1409 503 1785 630 297 100 283 99 524 23z"/>
<path d="M8369 16724 c-155 -45 -359 -115 -854 -294 -774 -280 -2273 -813
-4237 -1506 l-648 -228 0 -1317 0 -1317 28 -10 c482 -171 2067 -739 2172 -779
189 -72 340 -143 340 -159 0 -46 -1151 -3137 -1179 -3166 -10 -11 -193 52
-672 231 -261 97 -446 161 -465 161 -21 0 -18 -49 11 -191 72 -353 215 -796
391 -1206 479 -1119 1286 -2150 2359 -3012 447 -359 818 -611 1345 -913 660
-378 1394 -740 1536 -756 60 -6 201 53 599 253 376 190 610 315 940 503 606
345 1182 752 1652 1167 186 165 610 586 774 770 727 815 1168 1570 1499 2565
152 456 229 767 200 810 -11 18 -13 17 -550 -177 -190 -69 -401 -141 -469
-161 -119 -34 -125 -34 -138 -17 -24 34 -213 531 -658 1730 -131 352 -303 811
-382 1020 -80 209 -148 387 -150 396 -5 18 134 72 682 267 243 86 703 254
1610 585 l230 84 0 1323 0 1322 -75 28 c-224 82 -1166 418 -1965 700 -500 177
-1421 504 -2045 727 -1147 410 -1581 559 -1701 586 -66 14 -67 14 -180 -19z
m1111 -5444 c127 -32 567 -177 1240 -410 315 -109 502 -164 593 -175 43 -6 85
-2 166 15 60 13 116 20 124 17 28 -11 172 -362 437 -1067 100 -267 249 -658
330 -870 154 -404 214 -572 208 -589 -4 -12 -434 -313 -533 -373 -66 -41 -74
-43 -145 -43 -134 0 -190 40 -800 560 -429 366 -1341 1137 -1595 1347 -457
379 -484 395 -629 385 -71 -5 -753 -111 -782 -121 -6 -2 -66 -81 -133 -176
-148 -207 -241 -320 -348 -421 -191 -182 -386 -268 -578 -256 -125 8 -224 34
-258 69 -27 27 -29 33 -24 79 9 72 66 200 277 614 277 547 377 716 462 790 25
21 110 63 231 113 358 150 1041 417 1382 541 58 21 229 8 375 -29z m-1441 2
c47 -9 86 -22 88 -29 6 -17 -95 -65 -372 -178 -277 -113 -357 -151 -440 -210
-145 -103 -206 -200 -509 -805 -316 -633 -379 -794 -361 -917 9 -67 78 -132
205 -195 175 -86 310 -116 474 -104 179 12 406 96 543 200 80 61 222 210 412
434 208 245 200 241 624 302 l218 31 117 -93 c418 -332 2171 -1802 2430 -2037
264 -241 337 -365 302 -513 -48 -205 -208 -335 -374 -304 -71 14 -362 226
-982 717 -473 376 -616 483 -692 521 -62 31 -65 31 -105 17 -22 -8 -49 -26
-60 -40 -19 -26 -19 -27 2 -73 39 -90 196 -231 741 -666 332 -265 623 -507
711 -592 46 -44 58 -63 69 -107 29 -120 -12 -243 -116 -347 -86 -87 -140 -116
-212 -116 -147 1 -300 98 -972 622 -400 311 -634 480 -724 521 -35 15 -43 16
-67 4 -14 -8 -34 -30 -43 -50 -45 -94 14 -155 604 -615 375 -292 527 -418 606
-502 79 -85 99 -126 97 -206 -2 -125 -84 -238 -221 -303 -58 -28 -72 -31 -141
-27 -151 7 -227 56 -931 594 -294 225 -457 324 -531 324 -43 0 -58 -15 -66
-63 -4 -26 0 -45 16 -70 35 -57 168 -177 403 -364 350 -277 542 -450 554 -499
19 -74 -144 -203 -294 -235 -112 -23 -259 25 -577 189 l-190 98 2 59 c9 316 9
328 -15 396 -42 122 -114 214 -220 280 -125 77 -133 84 -153 122 -12 23 -23
72 -28 130 -17 181 -70 311 -167 416 -106 115 -234 168 -438 180 -117 7 -131
9 -147 30 -11 13 -19 33 -19 46 0 111 -179 332 -325 402 -226 107 -521 64
-688 -99 -33 -32 -67 -58 -77 -58 -11 0 -37 29 -68 78 -90 137 -200 226 -341
274 -54 19 -86 23 -176 22 -130 -1 -181 -16 -311 -95 l-85 -51 -92 89 c-100
97 -158 143 -317 250 -58 40 -123 87 -145 106 l-40 35 24 69 c68 199 605 1638
811 2176 l103 267 36 0 c21 0 91 -15 158 -34 161 -46 226 -52 340 -32 177 30
348 95 783 296 508 234 743 320 955 349 95 13 302 5 404 -17z m-2493 -3691
c143 -67 237 -245 199 -377 -30 -102 -160 -265 -249 -311 -18 -10 -66 -18
-114 -21 -77 -4 -87 -2 -146 27 -112 55 -185 168 -194 299 -4 66 -2 78 27 137
40 80 174 210 265 256 73 37 116 35 212 -10z m985 -151 c74 -14 169 -62 217
-110 55 -55 83 -119 89 -205 7 -93 -13 -163 -75 -254 -131 -195 -523 -620
-610 -662 -72 -35 -187 -33 -267 4 -73 34 -138 95 -172 162 -54 104 -37 280
36 392 114 174 552 640 632 672 32 13 84 13 150 1z m863 -550 c59 -30 145
-121 175 -186 19 -40 22 -61 19 -124 -6 -134 -82 -258 -324 -530 -159 -179
-309 -328 -372 -370 -44 -30 -52 -32 -118 -28 -53 4 -83 12 -123 34 -104 56
-185 178 -198 294 -5 54 -3 66 25 122 68 138 522 674 636 753 103 71 187 81
280 35z m484 -760 c92 -49 132 -117 140 -236 5 -87 -11 -148 -73 -273 -79
-156 -201 -304 -281 -337 -118 -49 -290 21 -359 147 -58 108 -29 226 97 394
80 105 236 264 293 296 61 35 128 39 183 9z"/>
<path d="M29686 12085 c-551 -79 -940 -466 -1057 -1053 -40 -203 -37 -523 7
-742 105 -518 482 -893 1000 -997 112 -22 412 -25 524 -4 390 70 718 318 898
676 180 361 210 892 73 1298 -139 411 -483 717 -906 807 -132 28 -398 35 -539
15z m371 -645 c98 -42 171 -149 212 -311 28 -110 44 -328 36 -499 -20 -445
-85 -626 -255 -704 -68 -31 -217 -29 -285 4 -136 66 -215 224 -246 491 -17
151 -6 506 19 624 53 240 137 362 287 412 58 19 169 11 232 -17z"/>
<path d="M19030 11725 l0 -335 285 0 285 0 0 -1040 0 -1040 400 0 400 0 0
1040 0 1040 285 0 285 0 0 335 0 335 -970 0 -970 0 0 -335z"/>
<path d="M21210 10685 l0 -1375 430 0 430 0 0 499 0 499 338 5 c289 4 350 7
427 24 204 46 347 123 480 257 102 104 145 170 186 288 130 381 2 792 -315
1003 -144 95 -302 143 -546 165 -63 5 -411 10 -772 10 l-658 0 0 -1375z m1286
732 c85 -18 148 -58 181 -115 24 -41 28 -58 28 -127 0 -134 -47 -201 -171
-247 -52 -19 -85 -22 -266 -26 l-208 -4 0 266 0 266 188 0 c112 0 211 -6 248
-13z"/>
<path d="M23510 12055 c0 -3 235 -431 521 -951 l521 -946 -18 -40 c-27 -60
-101 -121 -181 -148 -61 -21 -91 -24 -285 -28 l-218 -4 0 -314 0 -314 268 0
c302 0 412 12 540 59 220 80 409 272 541 552 37 78 699 1704 850 2087 l21 52
-373 0 -373 0 -194 -517 c-106 -285 -196 -524 -200 -531 -3 -7 -114 226 -246
517 l-239 530 -467 1 c-258 0 -468 -2 -468 -5z"/>
<path d="M26644 12045 c-3 -8 -144 -484 -313 -1057 l-306 -1043 -153 -3 -152
-3 0 -604 0 -605 268 0 267 0 35 290 34 290 822 0 821 0 27 -232 c16 -128 31
-258 34 -288 l7 -55 268 -3 267 -2 0 605 0 604 -152 3 -153 3 -305 1057 -305
1058 -503 0 c-432 0 -503 -2 -508 -15z m471 -637 c3 -13 79 -347 169 -743
l162 -720 -374 -3 c-206 -1 -377 0 -380 3 -4 4 270 1078 370 1453 11 39 44 45
53 10z"/>
<path d="M31570 10685 l0 -1376 793 4 c692 3 803 6 877 21 277 55 405 133 512
312 63 105 105 235 116 358 22 234 -29 407 -158 536 -78 78 -147 120 -268 163
l-91 33 52 18 c155 54 260 150 338 306 75 152 80 367 12 540 -76 192 -223 339
-400 401 -154 53 -130 52 -985 56 l-798 4 0 -1376z m1310 759 c89 -41 141
-138 126 -238 -11 -70 -63 -146 -121 -176 -48 -24 -55 -25 -292 -28 l-243 -3
0 236 0 237 243 -4 c220 -3 246 -5 287 -24z m20 -1048 c193 -74 206 -332 23
-423 l-58 -28 -257 -3 -258 -3 0 241 0 242 253 -4 c208 -4 260 -7 297 -22z"/>
<path d="M34402 10692 c-232 -752 -423 -1370 -422 -1374 0 -5 153 -8 339 -8
l340 0 35 113 c19 61 56 183 82 270 l48 157 370 -2 370 -3 77 -265 77 -265
432 -3 c385 -2 432 -1 426 13 -3 9 -193 613 -421 1343 -229 730 -421 1342
-426 1360 l-11 32 -446 0 -447 0 -423 -1368z m903 154 c58 -208 105 -382 105
-387 0 -5 -97 -9 -221 -9 -205 0 -220 1 -215 18 3 9 48 172 101 362 108 389
117 419 121 405 2 -5 51 -180 109 -389z"/>
<path d="M37522 12048 c-261 -32 -494 -146 -623 -303 -112 -136 -162 -298
-162 -520 0 -166 19 -251 84 -377 75 -142 237 -284 409 -355 36 -15 66 -28 68
-29 2 -1 -130 -255 -293 -564 -163 -310 -299 -569 -302 -576 -4 -12 61 -14
394 -14 l398 0 215 523 215 522 203 3 202 2 0 -525 0 -525 420 0 420 0 0 1375
0 1375 -787 -1 c-434 -1 -821 -6 -861 -11z m808 -839 l0 -271 -232 5 c-255 5
-300 13 -379 60 -73 44 -103 103 -103 201 0 129 61 220 167 250 76 22 91 23
330 25 l217 1 0 -271z"/>
<path d="M23476 8065 c-551 -79 -940 -466 -1057 -1053 -40 -203 -37 -523 7
-742 105 -518 482 -893 1000 -997 112 -22 412 -25 524 -4 390 70 718 318 898
676 180 361 210 892 73 1298 -139 411 -483 717 -906 807 -132 28 -398 35 -539
15z m371 -645 c98 -42 171 -149 212 -311 28 -110 44 -328 36 -499 -20 -445
-85 -626 -255 -704 -68 -31 -217 -29 -285 4 -136 66 -215 224 -246 491 -17
151 -6 506 19 624 53 240 137 362 287 412 58 19 169 11 232 -17z"/>
<path d="M29076 8065 c-551 -79 -940 -466 -1057 -1053 -40 -203 -37 -523 7
-742 105 -518 482 -893 1000 -997 112 -22 412 -25 524 -4 390 70 718 318 898
676 180 361 210 892 73 1298 -139 411 -483 717 -906 807 -132 28 -398 35 -539
15z m371 -645 c98 -42 171 -149 212 -311 28 -110 44 -328 36 -499 -20 -445
-85 -626 -255 -704 -68 -31 -217 -29 -285 4 -136 66 -215 224 -246 491 -17
151 -6 506 19 624 53 240 137 362 287 412 58 19 169 11 232 -17z"/>
<path d="M25360 6665 l0 -1375 410 0 410 0 0 1080 0 1080 320 0 320 0 0 -1080
0 -1080 410 0 410 0 0 1375 0 1375 -1140 0 -1140 0 0 -1375z"/>
<path d="M30960 6665 l0 -1375 430 0 430 0 0 499 0 499 338 5 c289 4 350 7
427 24 204 46 347 123 480 257 102 104 145 170 186 288 130 381 2 792 -315
1003 -144 95 -302 143 -546 165 -63 5 -411 10 -772 10 l-658 0 0 -1375z m1286
732 c85 -18 148 -58 181 -115 24 -41 28 -58 28 -127 0 -134 -47 -201 -171
-247 -52 -19 -85 -22 -266 -26 l-208 -4 0 266 0 266 188 0 c112 0 211 -6 248
-13z"/>
<path d="M33642 6672 c-232 -752 -423 -1370 -422 -1374 0 -5 153 -8 339 -8
l340 0 35 113 c19 61 56 183 82 270 l48 157 370 -2 370 -3 77 -265 77 -265
432 -3 c385 -2 432 -1 426 13 -3 9 -193 613 -421 1343 -229 730 -421 1342
-426 1360 l-11 32 -446 0 -447 0 -423 -1368z m903 154 c58 -208 105 -382 105
-387 0 -5 -97 -9 -221 -9 -205 0 -220 1 -215 18 3 9 48 172 101 362 108 389
117 419 121 405 2 -5 51 -180 109 -389z"/>
<path d="M17510 4590 l0 -240 11585 0 11585 0 0 240 0 240 -11585 0 -11585 0
0 -240z"/>
</g>
</svg>
