<?xml version="1.0" standalone="no"?>
<!DOCTYPE svg PUBLIC "-//W3C//DTD SVG 20010904//EN"
 "http://www.w3.org/TR/2001/REC-SVG-20010904/DTD/svg10.dtd">
<svg version="1.0" xmlns="http://www.w3.org/2000/svg"
 width="600.000000pt" height="554.000000pt" viewBox="0 0 600.000000 554.000000"
 preserveAspectRatio="xMidYMid meet">

<g transform="translate(0.000000,554.000000) scale(0.100000,-0.100000)"
fill="#000000" stroke="none">
<path d="M2680 5003 c-12 -54 -24 -108 -27 -121 -3 -13 -15 -28 -27 -32 -42
-18 -300 -109 -301 -107 -1 1 -34 45 -73 99 l-71 96 -108 -38 c-59 -21 -151
-54 -203 -72 l-95 -34 3 -125 4 -124 -151 -52 c-82 -29 -155 -53 -161 -53 -6
0 -60 25 -120 55 -60 30 -116 55 -123 55 -7 0 -66 -73 -132 -162 -65 -90 -123
-169 -128 -176 -7 -9 14 -38 81 -106 l92 -93 0 -140 0 -139 -47 -12 c-27 -7
-83 -22 -126 -34 l-77 -20 2 -211 3 -210 125 -42 125 -42 3 -154 2 -155 -120
-53 c-66 -29 -120 -59 -120 -66 0 -13 41 -281 58 -375 5 -28 13 -46 22 -47 8
-1 68 -7 132 -14 l117 -11 17 -52 c9 -28 34 -93 56 -144 l39 -93 -70 -78 c-39
-43 -77 -84 -86 -91 -8 -7 -15 -18 -15 -25 0 -9 217 -353 235 -373 1 -1 58 16
126 39 l124 42 110 -112 c61 -62 111 -116 113 -121 2 -5 -15 -59 -37 -121 -23
-61 -39 -114 -37 -118 3 -4 31 -24 63 -46 32 -22 111 -77 175 -123 65 -45 123
-82 130 -82 6 0 43 28 82 63 39 34 78 68 87 75 14 10 37 1 150 -60 74 -39 136
-73 138 -74 2 -2 15 -58 30 -126 l26 -123 232 -3 233 -2 5 22 c3 13 15 70 28
128 l22 105 135 72 c74 39 137 72 140 72 3 1 44 -33 90 -74 47 -42 92 -74 100
-72 8 2 95 59 192 126 l177 123 -40 110 c-21 60 -39 115 -39 121 0 7 51 63
112 126 l113 115 124 -42 c68 -24 125 -41 126 -40 105 162 235 368 235 375 0
5 -30 38 -66 73 -36 36 -75 77 -86 93 l-20 27 46 115 c25 63 46 120 46 128 0
36 24 46 149 58 109 11 124 15 132 33 7 18 69 379 69 404 0 5 -54 33 -120 62
l-120 53 2 155 3 156 123 40 122 40 0 213 0 212 -32 9 c-18 5 -75 19 -125 33
l-93 24 0 135 0 135 90 90 c50 49 90 96 90 103 0 10 -213 313 -249 355 -4 4
-59 -20 -122 -53 -62 -33 -121 -60 -129 -60 -8 0 -82 24 -165 54 l-149 54 3
124 3 123 -199 70 c-109 39 -201 70 -205 70 -4 0 -39 -43 -76 -95 -40 -54 -75
-94 -83 -92 -35 8 -295 104 -303 112 -5 5 -21 59 -36 122 l-27 113 -225 3
-225 2 -23 -97z m504 -389 c133 -47 288 -103 346 -124 58 -20 293 -104 523
-185 l417 -148 0 -631 c0 -798 -13 -957 -101 -1220 -193 -578 -671 -1045
-1376 -1346 l-66 -28 -99 44 c-720 320 -1187 798 -1358 1392 -73 253 -73 247
-77 1058 l-4 732 43 15 c24 8 171 61 328 117 157 56 341 121 410 145 69 24
262 94 430 154 168 60 314 110 324 110 11 1 128 -38 260 -85z"/>
<path d="M2730 4495 c-172 -63 -564 -202 -992 -353 l-218 -77 0 -316 0 -316
188 -67 c103 -37 240 -86 305 -109 64 -23 117 -46 117 -50 0 -8 -82 -231 -222
-602 -33 -88 -61 -161 -62 -162 -1 -1 -61 20 -134 47 -73 28 -136 50 -141 50
-5 0 4 -49 20 -110 114 -424 394 -792 821 -1078 152 -102 477 -272 520 -272
30 0 359 172 478 251 170 111 275 196 406 330 216 222 344 433 432 711 34 106
47 168 35 168 -4 -1 -66 -23 -138 -49 -71 -27 -133 -46 -136 -42 -3 3 -50 125
-104 271 -54 146 -117 316 -141 378 l-43 113 27 10 c15 6 74 28 132 48 58 21
183 66 278 101 l172 63 0 317 0 316 -242 87 c-134 47 -378 134 -543 192 -165
59 -368 131 -451 161 -83 30 -159 54 -170 53 -10 0 -98 -29 -194 -64z m100
-1251 c21 -5 12 -11 -55 -38 -168 -68 -153 -54 -257 -261 -106 -212 -107 -223
-28 -262 59 -31 129 -30 196 1 47 22 67 41 166 159 20 24 35 30 100 39 l77 11
43 -34 c43 -33 231 -190 490 -409 153 -129 169 -153 144 -214 -16 -39 -53 -60
-89 -50 -12 3 -98 66 -192 141 -202 161 -211 167 -230 159 -40 -15 -12 -46
164 -185 99 -78 182 -149 185 -157 13 -34 5 -67 -23 -95 -56 -55 -72 -48 -316
144 -76 59 -145 107 -154 105 -9 -2 -17 -12 -19 -24 -2 -15 26 -43 125 -119
168 -130 193 -153 193 -185 0 -34 -22 -64 -58 -79 -42 -18 -75 -1 -227 118
-130 101 -170 120 -170 77 0 -14 39 -50 117 -110 65 -51 117 -98 118 -108 0
-26 -48 -58 -87 -58 -21 0 -63 15 -103 36 l-69 36 5 46 c7 58 -18 108 -66 134
-29 15 -34 24 -36 56 -4 84 -62 142 -141 142 -34 0 -43 4 -43 17 0 27 -43 82
-77 98 -57 28 -136 14 -173 -30 -11 -14 -15 -12 -31 15 -40 65 -124 88 -185
51 l-32 -19 -23 24 c-13 13 -44 38 -71 55 -26 17 -48 34 -48 38 0 7 218 590
225 601 3 4 24 1 47 -7 64 -22 111 -11 270 64 180 84 239 98 338 77z m551 -69
c179 -64 220 -75 249 -69 19 5 39 8 43 8 4 1 42 -89 83 -199 41 -110 93 -247
115 -303 22 -57 39 -105 37 -107 -2 -2 -33 -23 -69 -48 -116 -79 -79 -93 -336
125 -325 276 -405 342 -435 362 -26 17 -32 17 -133 0 l-106 -17 -45 -63 c-78
-110 -151 -154 -228 -140 -68 13 -68 12 24 193 68 134 91 172 116 186 29 16
338 138 380 150 37 11 94 -4 305 -78z m-1158 -816 c25 -11 47 -47 47 -76 0
-28 -40 -81 -68 -91 -40 -13 -78 4 -96 43 -20 41 -10 71 34 108 35 30 48 32
83 16z m285 -61 c15 -15 22 -33 22 -58 0 -31 -11 -49 -70 -118 -39 -45 -79
-86 -90 -92 -53 -28 -120 13 -120 72 1 18 6 42 13 54 20 35 139 163 156 168
27 7 65 -4 89 -26z m177 -123 c41 -40 34 -83 -24 -152 -27 -32 -67 -76 -89
-97 -38 -36 -44 -38 -74 -30 -44 12 -75 71 -57 106 12 24 79 106 134 164 39
41 76 44 110 9z m115 -181 c7 -8 14 -29 14 -47 0 -45 -57 -135 -91 -143 -33
-9 -71 10 -85 42 -15 32 5 72 64 134 41 43 64 46 98 14z"/>
</g>
</svg>
